<?xml version="1.0" encoding="UTF-8"?>
<svg width="90px" height="71px" viewBox="0 0 90 71" version="1.1" xmlns="http://www.w3.org/2000/svg" xmlns:xlink="http://www.w3.org/1999/xlink">
    <!-- Generator: Sketch 43.1 (39012) - http://www.bohemiancoding.com/sketch -->
    <title>envelope</title>
    <desc>Created with Sketch.</desc>
    <defs></defs>
    <g id="Page-1" stroke="none" stroke-width="1" fill="none" fill-rule="evenodd">
        <g id="Artboard" transform="translate(-89.000000, -402.000000)" fill-rule="nonzero" fill="#6A737D">
            <g id="envelope" transform="translate(89.000000, 402.000000)">
                <path d="M8.63191406,21.9745881 C9.76957031,22.779196 13.1988867,25.1688834 18.9200391,29.1424169 C24.6413672,33.1159504 29.0242969,36.175469 32.0690039,38.3211489 C32.4035156,38.5563474 33.1141992,39.0676179 34.2014062,39.855665 C35.2887891,40.6442407 36.1923047,41.2814789 36.91125,41.7675558 C37.6307227,42.2534566 38.5004883,42.7985533 39.5214258,43.4019653 C40.5420117,44.0048486 41.5040625,44.4583325 42.4074023,44.7585409 C43.310918,45.0612159 44.1472852,45.2111439 44.9166797,45.2111439 L44.9671289,45.2111439 L45.0177539,45.2111439 C45.7871484,45.2111439 46.6238672,45.0610397 47.5273828,44.7585409 C48.4303711,44.4583325 49.3933008,44.0043201 50.4130078,43.4019653 C51.4332422,42.7978486 52.3030078,42.2532804 53.0224805,41.7675558 C53.7419531,41.2814789 54.6447656,40.6442407 55.7325,39.855665 C56.8195313,39.0669132 57.5310937,38.5563474 57.8656055,38.3211489 C60.9431836,36.175469 68.7730078,30.7260868 81.3526172,21.973531 C83.7949219,20.2640695 85.8353906,18.2013697 87.4745508,15.7868412 C89.1149414,13.3733697 89.9342578,10.8415062 89.9342578,8.19266005 C89.9342578,5.97915136 89.1391992,4.08434988 87.5497852,2.50843176 C85.9605469,0.93216129 84.0782812,0.144466501 81.9042187,0.144466501 L8.02951172,0.144466501 C5.4534375,0.144466501 3.47097656,1.01619851 2.08248047,2.75966253 C0.694160156,4.50347891 0,6.68316129 0,9.2985335 C0,11.4110918 0.920390625,13.7003573 2.76029297,16.1649206 C4.60001953,18.62966 6.55787109,20.5663921 8.63191406,21.9745881 Z" id="Shape"></path>
                <path d="M84.915,27.3561414 C73.9420312,34.799866 65.61,40.5848685 59.9229492,44.7099156 C58.0158984,46.1177593 56.4688477,47.2167618 55.2807422,48.0042804 C54.0926367,48.7923275 52.5125391,49.5971117 50.5381641,50.4182804 C48.5644922,51.2406824 46.7251172,51.6506501 45.018457,51.6506501 L44.9673047,51.6506501 L44.9168555,51.6506501 C43.2105469,51.6506501 41.3701172,51.2406824 39.3964453,50.4182804 C37.4227734,49.5971117 35.8416211,48.7923275 34.6538672,48.0042804 C33.4664648,47.2167618 31.9188867,46.1177593 30.0120117,44.7099156 C25.4949609,41.3903573 17.1808594,35.6050025 5.06935547,27.3561414 C3.16177734,26.0827221 1.47216797,24.6230819 0,22.9802159 L0,62.9172754 C0,65.1318412 0.785917969,67.0255856 2.35863281,68.6016799 C3.93099609,70.1783027 5.82169922,70.9663499 8.03003906,70.9663499 L81.9049219,70.9663499 C84.1127344,70.9663499 86.0032617,70.1783027 87.5758008,68.6016799 C89.1488672,67.0250571 89.9344336,65.1320174 89.9344336,62.9172754 L89.9344336,22.9802159 C88.4954883,24.5890794 86.8231055,26.0487196 84.915,27.3561414 Z" id="Shape"></path>
            </g>
        </g>
    </g>
</svg>